# xmcd CD database file
#
# Track frame offsets:
#	150
#	13439
#	26634
#	48129
#	62101
#	72197
#	84439
#	95282
#	102651
#	115930
#	131950
#	143215
#	158158
#
# Disc length: 2329 seconds
#
# Revision: 1
# Processed by: cddbd v1.5.2PL0 Copyright (c) Steve Scherf et al.
# Submitted via: Feurio! 1.68 - http://www.feurio.com
#
DISCID=b609170d
DTITLE=Various Artist - Country Stars 
DYEAR=1900
DGENRE=Country
TTITLE0=Freddy Quinn - Green, green grass of home
TTITLE1=Tom Astor - Der Truck - das ist sein Leben
TTITLE2=Jonny Hill - Ruf Teddybär eins-vier
TTITLE3=Truck Stop - Das gibt'S doch nur in Dallas
TTITLE4=Dave Dudley - Don't need the rain
TTITLE5=Johnny Cash - Ring of fire
TTITLE6=Nils Tuxen - Hello Mary Lou
TTITLE7=Volker Lechtenbrink - Hitch hike Baby
TTITLE8=Truck Stop - Take it easy, altes Haus
TTITLE9=Gunter Gabriel - Ohne Moos nichts los
TTITLE10=The Folk-Ways-Group - The yellow rose of Texas
TTITLE11=Jonny Hill - Dieser Weg führt nach Haus
TTITLE12=Linda Berger - In Virginia fällt der Regen
EXTD=CD 2
EXTT0=dt.
EXTT1=
EXTT2=
EXTT3=
EXTT4=
EXTT5=
EXTT6=
EXTT7=
EXTT8=
EXTT9=
EXTT10=
EXTT11=
EXTT12=
PLAYORDER=
